<?xml version="1.0" encoding="utf-8"?>
<!-- Generator: Adobe Illustrator 18.1.1, SVG Export Plug-In . SVG Version: 6.00 Build 0)  -->
<svg version="1.1" id="Layer_1" xmlns="http://www.w3.org/2000/svg" xmlns:xlink="http://www.w3.org/1999/xlink" x="0px" y="0px"
	 viewBox="0 0 1061.1 389.4" enable-background="new 0 0 1061.1 389.4" xml:space="preserve">
<g>
	<path d="M1014.8,358.4h-4.8v14.1h-3.8v-14.1h-4.8V355h13.3V358.4z M1034.9,372.5h-3.4v-14.1h-0.1l-4.6,14.1h-2l-4.6-14.1h-0.1v14.1
		h-3.4V355h5.5l3.5,10.3l3.6-10.3h5.5V372.5z"/>
</g>
<g>
	<g>
		
			<linearGradient id="SVGID_1_" gradientUnits="userSpaceOnUse" x1="-3026.0127" y1="-3470.7371" x2="-2987.2322" y2="-3299.4404" gradientTransform="matrix(0.7377 -2.820000e-002 2.820000e-002 0.7377 2346.7166 2597.9634)">
			<stop  offset="0" style="stop-color:#1D2C5F"/>
			<stop  offset="1" style="stop-color:#0071B9"/>
		</linearGradient>
		<polygon fill="url(#SVGID_1_)" points="47.3,224.2 61.9,209.5 14.4,129.1 0,144.4 		"/>
		
			<linearGradient id="SVGID_2_" gradientUnits="userSpaceOnUse" x1="-2946.283" y1="-3144.4915" x2="-2954.3074" y2="-3553.709" gradientTransform="matrix(0.7382 0 0 0.7382 2241.8123 2698.6274)">
			<stop  offset="0" style="stop-color:#1D2C5F"/>
			<stop  offset="1" style="stop-color:#0071B9"/>
		</linearGradient>
		<polygon fill="url(#SVGID_2_)" points="47.3,224.2 61.9,209.5 79.9,200.9 65.1,216.6 		"/>
		
			<linearGradient id="SVGID_3_" gradientUnits="userSpaceOnUse" x1="-2078.1921" y1="-3560.3557" x2="-2099.375" y2="-3485.3945" gradientTransform="matrix(0.7382 0 0 0.7382 2248.5171 2697.9829)">
			<stop  offset="0" style="stop-color:#1D2C5F"/>
			<stop  offset="1" style="stop-color:#0071B9"/>
		</linearGradient>
		<polygon fill="url(#SVGID_3_)" points="701,92.1 719,82.4 720.5,71.5 702.8,81.6 		"/>
		
			<linearGradient id="SVGID_4_" gradientUnits="userSpaceOnUse" x1="-2281.7449" y1="-3665.4211" x2="-2326.6777" y2="-3556.2988" gradientTransform="matrix(0.7382 0 0 0.7382 2251.3003 2694.7368)">
			<stop  offset="0" style="stop-color:#1D2C5F"/>
			<stop  offset="1" style="stop-color:#0071B9"/>
		</linearGradient>
		<polygon fill="url(#SVGID_4_)" points="498.1,93 516.3,83.5 588.3,0.2 570.9,9.6 		"/>
		
			<linearGradient id="SVGID_5_" gradientUnits="userSpaceOnUse" x1="-1722.2262" y1="-3524.364" x2="-1757.6422" y2="-3426.1631" gradientTransform="matrix(0.7382 0 0 0.7382 2250.6238 2698.7817)">
			<stop  offset="0" style="stop-color:#1D2C5F"/>
			<stop  offset="1" style="stop-color:#0071B9"/>
		</linearGradient>
		<polygon fill="url(#SVGID_5_)" points="960.6,123.8 978.1,113.9 970.5,146.3 952.7,155.7 		"/>
		
			<linearGradient id="SVGID_6_" gradientUnits="userSpaceOnUse" x1="-1771.6218" y1="-3165.6206" x2="-1779.6567" y2="-3575.3643" gradientTransform="matrix(0.7382 0 0 0.7382 2250.0701 2698.9673)">
			<stop  offset="0" style="stop-color:#1D2C5F"/>
			<stop  offset="1" style="stop-color:#0071B9"/>
		</linearGradient>
		<polygon fill="url(#SVGID_6_)" points="963.6,381.9 981.5,372.8 921,353.3 903.3,362.7 		"/>
		
			<linearGradient id="SVGID_7_" gradientUnits="userSpaceOnUse" x1="-1907.9559" y1="-3423.385" x2="-1785.7639" y2="-3537.5386" gradientTransform="matrix(0.7382 0 0 0.7382 2250.6238 2698.7817)">
			<stop  offset="0" style="stop-color:#1D2C5F"/>
			<stop  offset="1" style="stop-color:#0071B9"/>
		</linearGradient>
		<polygon fill="url(#SVGID_7_)" points="864.2,156 882,146.6 867.4,143.3 849.5,152.6 		"/>
		
			<linearGradient id="SVGID_8_" gradientUnits="userSpaceOnUse" x1="-2363.3774" y1="-3159.2092" x2="-2371.4231" y2="-3569.5056" gradientTransform="matrix(0.7382 0 0 0.7382 2246.5183 2697.2124)">
			<stop  offset="0" style="stop-color:#1D2C5F"/>
			<stop  offset="1" style="stop-color:#0071B9"/>
		</linearGradient>
		<polygon fill="url(#SVGID_8_)" points="496.9,115.8 512.4,107.5 499.7,117.7 481.6,127.4 		"/>
		
			<linearGradient id="SVGID_9_" gradientUnits="userSpaceOnUse" x1="-1812.6608" y1="-3165.0615" x2="-1820.7025" y2="-3575.156" gradientTransform="matrix(0.7382 0 0 0.7382 2250.3003 2698.8706)">
			<stop  offset="0" style="stop-color:#1D2C5F"/>
			<stop  offset="1" style="stop-color:#0071B9"/>
		</linearGradient>
		<polygon fill="url(#SVGID_9_)" points="902.7,339 920.4,329.5 921,353.3 903.3,362.7 		"/>
		
			<linearGradient id="SVGID_10_" gradientUnits="userSpaceOnUse" x1="-1864.9849" y1="-3533.2756" x2="-1910.0398" y2="-3459.2556" gradientTransform="matrix(0.7382 6.200000e-003 -6.200000e-003 0.7382 2226.7319 2718.8787)">
			<stop  offset="0" style="stop-color:#1D2C5F"/>
			<stop  offset="1" style="stop-color:#0071B9"/>
		</linearGradient>
		<polygon fill="url(#SVGID_10_)" points="849.5,152.6 867.4,143.3 866.4,89.2 848.8,99.2 		"/>
		<polygon fill="#312370" points="844.6,330.7 862.3,321.3 881.9,146.7 864.2,156 		"/>
		
			<linearGradient id="SVGID_11_" gradientUnits="userSpaceOnUse" x1="-1851.682" y1="-3164.0884" x2="-1859.7102" y2="-3573.4946" gradientTransform="matrix(0.7382 0 0 0.7382 2250.0701 2698.9673)">
			<stop  offset="0" style="stop-color:#1D2C5F"/>
			<stop  offset="1" style="stop-color:#0071B9"/>
		</linearGradient>
		<polygon fill="url(#SVGID_11_)" points="902.7,339 920.4,329.5 862.3,321.3 844.6,330.7 		"/>
		
			<linearGradient id="SVGID_12_" gradientUnits="userSpaceOnUse" x1="-1997.0513" y1="-3188.2351" x2="-2013.1326" y2="-3577.344" gradientTransform="matrix(0.7382 0 0 0.7382 2247.4871 2696.0142)">
			<stop  offset="0" style="stop-color:#1D2C5F"/>
			<stop  offset="1" style="stop-color:#0071B9"/>
		</linearGradient>
		<polygon fill="url(#SVGID_12_)" points="807.7,337.7 825.2,328.4 737.7,312.6 720,322.2 		"/>
		
			<linearGradient id="SVGID_13_" gradientUnits="userSpaceOnUse" x1="-2059.1587" y1="-3170.0552" x2="-2067.1997" y2="-3580.1074" gradientTransform="matrix(0.7382 0 0 0.7382 2247.6707 2695.644)">
			<stop  offset="0" style="stop-color:#1D2C5F"/>
			<stop  offset="1" style="stop-color:#0071B9"/>
		</linearGradient>
		<polygon fill="url(#SVGID_13_)" points="720,322.2 737.7,312.6 733.2,273.6 715.2,283.2 		"/>
		
			<linearGradient id="SVGID_14_" gradientUnits="userSpaceOnUse" x1="-2088.0828" y1="-3151.1733" x2="-2097.2607" y2="-3619.2104" gradientTransform="matrix(0.7382 0 0 0.7382 2247.6101 2695.644)">
			<stop  offset="0" style="stop-color:#1D2C5F"/>
			<stop  offset="1" style="stop-color:#0071B9"/>
		</linearGradient>
		<polygon fill="url(#SVGID_14_)" points="705.5,313.4 725.9,303.6 701,260.1 683.3,270 		"/>
		
			<linearGradient id="SVGID_15_" gradientUnits="userSpaceOnUse" x1="-2162.2734" y1="-3182.8665" x2="-2178.3521" y2="-3571.9116" gradientTransform="matrix(0.7382 0 0 0.7382 2247.7312 2695.522)">
			<stop  offset="0" style="stop-color:#1D2C5F"/>
			<stop  offset="1" style="stop-color:#0071B9"/>
		</linearGradient>
		<polygon fill="url(#SVGID_15_)" points="678.9,297.3 696.5,287.9 619.5,275.7 601.7,285 		"/>
		
			<linearGradient id="SVGID_16_" gradientUnits="userSpaceOnUse" x1="-2174.3291" y1="-3384.3782" x2="-2325.9182" y2="-3511.5767" gradientTransform="matrix(0.7382 0 0 0.7382 2247.7312 2695.522)">
			<stop  offset="0.25" style="stop-color:#1D2C5F"/>
			<stop  offset="0.65" style="stop-color:#0071B9"/>
		</linearGradient>
		<polygon fill="url(#SVGID_16_)" points="601.7,285 619.5,275.7 651.1,82.1 633.4,92.1 		"/>
		
			<linearGradient id="SVGID_17_" gradientUnits="userSpaceOnUse" x1="-2385.8577" y1="-3498.7107" x2="-2187.3718" y2="-3634.7705" gradientTransform="matrix(0.7382 0 0 0.7382 2251.3003 2694.7837)">
			<stop  offset="0" style="stop-color:#1D2C5F"/>
			<stop  offset="1" style="stop-color:#0071B9"/>
		</linearGradient>
		<polygon fill="url(#SVGID_17_)" points="510.8,108.2 528.7,99.1 516.3,83.5 498.1,93 		"/>
		
			<linearGradient id="SVGID_18_" gradientUnits="userSpaceOnUse" x1="-2360.1057" y1="-3206.9375" x2="-2368.1458" y2="-3616.9438" gradientTransform="matrix(0.7373 3.540000e-002 -3.540000e-002 0.7373 2111.009 2811.6741)">
			<stop  offset="0" style="stop-color:#1D2C5F"/>
			<stop  offset="1" style="stop-color:#0071B9"/>
		</linearGradient>
		<polygon fill="url(#SVGID_18_)" points="406.1,265.3 423.7,255.7 566.6,326.9 549.1,336.1 		"/>
		
			<linearGradient id="SVGID_19_" gradientUnits="userSpaceOnUse" x1="-2459.2898" y1="-3578.7693" x2="-2488.4343" y2="-3512.386" gradientTransform="matrix(0.7382 0 0 0.7382 2247.271 2697.2124)">
			<stop  offset="0" style="stop-color:#1D2C5F"/>
			<stop  offset="1" style="stop-color:#0071B9"/>
		</linearGradient>
		<polygon fill="url(#SVGID_19_)" points="397.8,113.5 415.7,103.7 437.2,62.3 419.5,72.5 		"/>
		
			<linearGradient id="SVGID_20_" gradientUnits="userSpaceOnUse" x1="-2518.4519" y1="-3181.2339" x2="-2526.2944" y2="-3581.1667" gradientTransform="matrix(0.7381 1.150000e-002 -1.150000e-002 0.7381 2203.0796 2732.1526)">
			<stop  offset="0" style="stop-color:#1D2C5F"/>
			<stop  offset="1" style="stop-color:#0071B9"/>
		</linearGradient>
		<polygon fill="url(#SVGID_20_)" points="337.4,336.8 355.5,327.3 423.9,317.6 405.7,326.8 		"/>
		
			<linearGradient id="SVGID_21_" gradientUnits="userSpaceOnUse" x1="-2538.0254" y1="-3345.1826" x2="-2648.9644" y2="-3321.0652" gradientTransform="matrix(0.7381 1.150000e-002 -1.150000e-002 0.7381 2203.0796 2732.1526)">
			<stop  offset="0" style="stop-color:#1D2C5F"/>
			<stop  offset="1" style="stop-color:#0071B9"/>
		</linearGradient>
		<polygon fill="url(#SVGID_21_)" points="337.4,336.8 355.5,327.3 338.3,143.2 320.8,152.6 		"/>
		
			<linearGradient id="SVGID_22_" gradientUnits="userSpaceOnUse" x1="-2624.4849" y1="-3541.0356" x2="-2621.249" y2="-3429.3403" gradientTransform="matrix(0.7382 0 0 0.7382 2247.8533 2696.8599)">
			<stop  offset="0" style="stop-color:#1D2C5F"/>
			<stop  offset="1" style="stop-color:#0071B9"/>
		</linearGradient>
		<polygon fill="url(#SVGID_22_)" points="304,156.9 321.9,147.4 319.2,94.9 301.5,105 		"/>
		
			<linearGradient id="SVGID_23_" gradientUnits="userSpaceOnUse" x1="-2810.4604" y1="-3125.5349" x2="-2818.4097" y2="-3530.9124" gradientTransform="matrix(0.7377 -2.820000e-002 2.820000e-002 0.7377 2347.8396 2597.6099)">
			<stop  offset="0" style="stop-color:#1D2C5F"/>
			<stop  offset="1" style="stop-color:#0071B9"/>
		</linearGradient>
		<polygon fill="url(#SVGID_23_)" points="159.2,377.5 141.3,389.4 213.7,366.1 231.6,354.7 		"/>
		
			<linearGradient id="SVGID_24_" gradientUnits="userSpaceOnUse" x1="-2900.5793" y1="-3217.0781" x2="-3000.2515" y2="-3495.2019" gradientTransform="matrix(0.7377 -2.820000e-002 2.820000e-002 0.7377 2346.4861 2598.1003)">
			<stop  offset="0" style="stop-color:#1D2C5F"/>
			<stop  offset="1" style="stop-color:#0071B9"/>
		</linearGradient>
		<polygon fill="url(#SVGID_24_)" points="79.9,200.9 65.1,216.6 141.3,389.4 159.2,377.5 		"/>
		
			<linearGradient id="SVGID_25_" gradientUnits="userSpaceOnUse" x1="-2739.0154" y1="-3075.4734" x2="-2818.5632" y2="-3382.2976" gradientTransform="matrix(0.7293 -0.1141 0.1141 0.7293 2642.2429 2271.7803)">
			<stop  offset="0" style="stop-color:#1D2C5F"/>
			<stop  offset="1" style="stop-color:#0071B9"/>
		</linearGradient>
		<path fill="url(#SVGID_25_)" d="M273.7,319.1c-18.7-5.4-33.7-18.4-42.3-36.6c-4.4-9.3-8.3-30-8.6-40.3
			c-4.1,4.7-12.3,9.7-18.3,12.6c0,0,3.9,20.3,8.9,34.6c5,14.2,17,25.7,17,25.7c7.7,7.5,17.1,12.9,27.6,16c20.2,5.9,43,2,62.6-10.4
			c5.1-3.2,12.1-8.4,16.4-12.6C317.9,319.8,293.4,324.7,273.7,319.1z"/>
		
			<linearGradient id="SVGID_26_" gradientUnits="userSpaceOnUse" x1="-2604.1746" y1="-3155.7759" x2="-2612.2126" y2="-3565.6829" gradientTransform="matrix(0.7382 0 0 0.7382 2247.8533 2696.8599)">
			<stop  offset="0" style="stop-color:#1D2C5F"/>
			<stop  offset="1" style="stop-color:#0071B9"/>
		</linearGradient>
		<polygon fill="url(#SVGID_26_)" points="304,156.9 320.8,152.6 338.3,143.2 321.9,147.4 		"/>
		<g>
			
				<linearGradient id="SVGID_27_" gradientUnits="userSpaceOnUse" x1="-1868.8469" y1="-3261.3169" x2="-1876.8995" y2="-3671.9666" gradientTransform="matrix(0.7361 5.520000e-002 -5.520000e-002 0.7361 2034.7706 2867.2383)">
				<stop  offset="0" style="stop-color:#1D2C5F"/>
				<stop  offset="1" style="stop-color:#0071B9"/>
			</linearGradient>
			<path fill="url(#SVGID_27_)" d="M820.2,298.2l1,8.5c6.2-0.8,12.8-1.5,18.4-3.5c6.6-2.3,20.7-8.5,26.1-13.3
				c-2,0.8-11.6,5.2-13.7,5.8C841.5,298.9,830.5,299.2,820.2,298.2z"/>
		</g>
		<g>
			
				<linearGradient id="SVGID_28_" gradientUnits="userSpaceOnUse" x1="-2356.0254" y1="-3238.0854" x2="-2364.0696" y2="-3648.3132" gradientTransform="matrix(0.8285 -1.470000e-002 1.360000e-002 0.8956 2595.9841 3233.8933)">
				<stop  offset="0" style="stop-color:#1D2C5F"/>
				<stop  offset="1" style="stop-color:#0071B9"/>
			</linearGradient>
			<path fill="url(#SVGID_28_)" d="M566.6,257.9l0.3,9.8c14.6-2.1,27.2-7.6,39.6-15c7.8-4.6,16.3-11.6,19-13.5c-1.9,1.2-3.8,2-5.8,3
				C608.2,248.5,577.5,257.8,566.6,257.9z"/>
		</g>
	</g>
	<path fill="#FFCB05" d="M978.4,114.3l-7.8,32.2l-7.2-35.7l-96.7-21.3l0.7,53.7l14.5,3.3l-1.1,9.7c-0.2-0.1-0.3-0.2-0.4-0.2
		c-18-9.6-40.4-10.5-61.5-2.6c-7,2.7-13.6,6.3-19.6,10.6l-14.5-92h-64.3l-1.8,10.5h-67.7l-7.8,47.4l-5.6-6.9
		c-16.4-20.2-40.2-31.3-66.5-31.8l57.4-30.9l-40-59.8l-72.4,83.4l12.5,15.3c-11.4,4.6-21.2,11-29.4,18.7l-62-55.1l-21.8,41.6l0.9-40
		l-97.1,31l2.5,52.2l16.5-4.3l2.5,26.5c-18.9-8.5-41.5-8.3-62.6,0.6c-6.2,2.7-12,6-17.4,9.9c3.7-16.1,2.8-31.9-3.3-46.1
		c-7.2-16.7-20-30.5-35.6-39.3c-11-7.3-24-11.8-37.7-13.4c-33.5-5.9-73.8,0.2-113.5,17c-14.6,6.2-28.2,13.3-40.5,21.1l-15.5,9.9
		l9.4,15.8l29.1,49.1c0,0,8.9,15.1,9,15.1l15.7-7.7l2.2-1.1l72.2,161.2l7,15.5l16.2-5.2l39.1-12.5l17.1-5.5l-4.5-17.4l-20.8-79.7
		c6-4.4,11.5-9.1,16.7-14c-1.1,9.5-0.5,19.2,2.1,28.4c5.4,19.3,18.1,34.6,35.7,43.1c18.9,9.1,42.1,9.1,63.5,0
		c10.7-4.6,20.3-11.2,28.4-19.1l3,31.8l68.4-10.1l-0.1-61.4l143,70.8V258c5.8-0.5,11.7-1.4,17.5-2.8c15.8-3.8,29.2-9,41.2-16.2
		l-6,36.7l77.1,12.2l4.2-27.8l20.1,37.2l12.3-23.7l4.5,38.9l87.5,15.4l-4.6-29.4c11.9,1.4,24.6-0.2,36.8-4.8
		c2.9-1.1,5.7-2.4,8.5-3.8l-3.5,31.3l58.2,8.1l0.5,23.9l60.6,19.1l79-238.1L978.4,114.3z M455.5,187.5l18.4-17.8
		c-0.8,8.2-0.4,16.8,1.4,25.5L455.5,187.5z M635.9,175.4L623.3,164l13.5-14.3l4.1-4.3L635.9,175.4z M186.3,203.8l-2.8,2.4l-1.1-3.5
		l-11.2-36.5l-0.7-2.5l2.6-0.5c5.9-1.1,11.3-0.5,15.8,1.6c2.7,1.3,7.4,4.3,8.6,10.2C199.6,186.3,196.2,194.9,186.3,203.8z
		 M541.4,179.5l-2.1,2.4l-1.5-2.8c-4.9-9-3.6-20.2,3.4-27.8c6.7-7.4,17.1-9.8,26.4-6.2l3,1.2l-2.1,2.4L541.4,179.5z"/>
	<g>
		<path fill="#C8A008" d="M530.1,202.7c1.1,1.1,0.1,0.3,1.3,1.1l8.6-5.3c-1.2-0.9-2.8-2.3-4-3.3c-11.9-10.9-8.9-35.4-1-48.8
			C514.6,162.8,515.7,188.1,530.1,202.7z"/>
		<g>
			<path fill="#C8A008" d="M629.6,213.7C616,225,600.5,232.3,580,237.3c-4.5,1.1-8.9,1.8-13.2,2.2c-32.5,3.2-59.8-11.8-70.2-36
				c-1.2-2.9-2.2-5.9-3-9.1c-4.8-20.4-0.7-38.7,9.4-53c1-1.4,2-2.7,3.1-4c-0.5,0.4-1,0.8-1.5,1.2c-3.8,3.4-7.3,7.2-10.2,11.4
				c-10.1,14.3-14.2,32.5-9.4,53c0.7,3.1,1.7,6.2,3,9.1c10.4,24.2,37.7,39.2,70.3,36.1c4.3-0.4,8.7-1.1,13.1-2.2
				c20.5-4.9,36.1-12.3,49.7-23.6c3.3-2.7,6.5-5.7,9.7-8.9l-0.3-0.3C630.2,213.2,629.9,213.5,629.6,213.7z"/>
			<polygon fill="#C8A008" points="436.6,100.9 435.1,99.5 400,148.8 400.2,152 			"/>
			<polygon fill="#C8A008" points="606.7,55.8 585.5,27 577.7,36.5 595.8,61.2 			"/>
			<path fill="#C8A008" d="M240,141.7c-5.8-13.3-15.7-23.7-28.7-31c-9.4-6.3-20.3-9.3-30.5-10.5c-28.9-5.1-65-0.3-102.8,15.8
				c-13.5,5.7-26.1,12.3-37.7,19.7l1.5,2.5c8.7-5,18-9.5,27.6-13.6c37.9-16.1,73.9-20.9,102.8-15.8c10.2,1.2,21,4.2,30.5,10.5
				c13,7.3,22.9,17.7,28.7,31c10.3,23.6,1.2,54.9-23,81.2C238.9,203.6,251.4,167.9,240,141.7z"/>
			<path fill="#C8A008" d="M363.1,218.7c-0.3-1.3-0.5-2.6-0.9-3.9c-3.3-11.9-10.4-21.4-19.8-27.7c-15.1-10.3-36.1-12.3-57.1-3.5
				c-11,4.8-20.7,12.1-28.3,20.9c5.8-5,12.5-9.2,19.7-12.3c21-8.9,42-6.8,57.1,3.5c9.3,6.3,16.4,15.8,19.8,27.7
				c0.4,1.3,0.7,2.6,0.9,3.9c1,4.6,1.3,9.2,1.1,13.8c-0.4,13.8-5.5,27.6-14,39.3c-1.3,1.8-2.7,3.6-4.2,5.3
				c4.8-4.1,9.1-8.8,12.8-13.8c8.5-11.8,13.6-25.6,14-39.3C364.5,227.9,364.1,223.2,363.1,218.7z"/>
			<path fill="#C8A008" d="M305.2,201.2c-0.1,0.1,8.5-8.6,8.4-8.6c-10.8-0.4-15.3,9.8-15.7,10.6
				C300.2,202.1,302.6,201.4,305.2,201.2z"/>
			<path fill="#C8A008" d="M325.5,213.6c0.4,1.4,0.7,2.9,0.7,4.5c0,2.3-0.5,4.4-1.4,6.4c1.7-0.8,14.2-6.9,9.3-19.7
				C334.4,205.1,325.2,213.6,325.5,213.6z"/>
			<path fill="#C8A008" d="M276.5,220.7c0-5.3,9-18,11.8-22.3c-14.2,9.1-20.4,21.3-20.4,30.9c0,16.6,14.5,29.8,31.8,29.8
				c8.2,0,23.2-4.3,33-20.3c-5.1,3.4-18.2,11.5-25,11.5C290.4,250.3,276.5,237.3,276.5,220.7z"/>
			<polygon fill="#C8A008" points="398.7,302.5 407.2,301.4 407.2,227.1 398.5,235.8 			"/>
			<polygon fill="#C8A008" points="391.8,163.7 400.2,151.9 396.6,91.2 337.6,108.8 337.9,114.7 388.1,99.8 			"/>
			<g>
				<polygon fill="#C8A008" points="443.6,91 436.6,100.9 478.1,139.9 486.1,131.4 				"/>
				<path fill="#C8A008" d="M510.2,245.3c-12-7.4-21.4-17.5-27.6-29.2l-55.7-22l-8.1,8.5l55.2,22.1c6.2,11.8,15.7,21.9,27.7,29.2
					c11.5,7.1,24.7,11.4,38.7,12.7v27.2l8.5,4.3v-40C534.9,256.6,521.7,252.4,510.2,245.3z"/>
			</g>
			<g>
				<path fill="#C8A008" d="M571.1,204.6c13.6-3.3,21.4-10.3,28.2-18.2c-5.1,4.2-11.3,7.6-19.6,9.7c-4.7,1.1-11,2.2-15.1,1.5
					l-8.4,8.9C560.1,206.8,566.4,205.7,571.1,204.6z"/>
				<path fill="#C8A008" d="M548.5,112c-13.8,3.3-25.9,9.5-35.4,18c-2.6,2.3-4.9,4.8-7.1,7.3c9.3-7.8,20.9-13.6,33.9-16.8
					c31.1-7.5,58.4,2,75.3,22.9l8.4-8.9C606.9,114.1,579.6,104.6,548.5,112z"/>
			</g>
			<path fill="#C8A008" d="M630.5,213c3-2.5,6-5.3,8.9-8.2l-7.2-6.5L608.5,177c-2.6,3-5.3,6-8.4,8.7l23.5,21.1L630.5,213z"/>
			<path fill="#C8A008" d="M801.5,293.6c-1.8-0.7-3.5-1.5-5.1-2.4c-16.5-8.8-28.1-23.9-32.5-42.7c-5.8-24.3,2.6-50.7,19.9-70.4
				l-13.6-88.3h-32.7l-1.5,8.6h25.7l13.6,88.3c-17.3,19.7-25.7,46.1-19.9,70.4c4.4,18.8,16,33.9,32.6,42.7c1.6,0.9,3.3,1.7,5.1,2.4
				l0.2,1.3l10.1,1.6L801.5,293.6z"/>
			<polygon fill="#C8A008" points="716,170.8 724.6,162.2 713.2,99.7 667.3,99.7 665.9,108.3 704.6,108.3 			"/>
			<polygon fill="#C8A008" points="721.1,253.3 724,259.5 742.1,212.6 733.6,221.1 			"/>
			<polygon fill="#C8A008" points="687.9,209.3 678.7,267.6 685.7,268.8 696.5,200.8 			"/>
			<path fill="#C8A008" d="M870.4,182.1c5.1,3.7,9.3,8.2,12.7,13.6c2.5,4.2,4.5,8.8,5.7,14c4.2,17.6-0.9,36.5-11.9,51.7
				c-1.2,1.5-2.3,3-3.6,4.5c4.6-3.9,8.7-8.3,12.1-13.1c11.1-15.2,16.2-34.1,12-51.7c-1.2-5.1-3.2-9.8-5.7-14
				c-3.3-5.4-7.6-10-12.6-13.6c-13.9-10-33.7-12.7-53.6-5.1c-8.6,3.3-16.4,8.2-23,14.2c-2.4,2.2-4.7,4.6-6.8,7.1
				c6.3-5.3,13.4-9.7,21.3-12.7C836.7,169.5,856.4,172.1,870.4,182.1z"/>
			<path fill="#C8A008" d="M840.6,185.9c0.1,0.4,8.4-8.6,8.7-8.6c-10.5,0.4-15.6,5.5-15.1,7.9c-0.6,0.9-1.1,1.8-1.5,2.7
				C834.9,186.8,839,186,840.6,185.9z"/>
			<path fill="#C8A008" d="M860.3,199.1c0.4,1.5,0.6,3,0.5,4.5c-0.1,2-0.5,3.9-1.3,5.6c1.6-0.8,14.3-4.7,9.5-18.7
				C869.1,191,860.2,199.2,860.3,199.1z"/>
			<path fill="#C8A008" d="M832.4,243.7c11.9,0.5,25-6.9,34.5-19.8c-5.4,3.6-18.8,11.2-26.1,10.9c-17.3-0.7-30.7-14.3-30-30.9
				c0.2-4.8,6.5-15.2,9-19.2c-9.1,6.7-17.2,19.4-17.6,28.4C801.5,229.6,815.1,243,832.4,243.7z"/>
			<polygon fill="#C8A008" points="989.8,135 987.4,144.9 1029.3,154.2 965,348.7 970.2,350.2 1037.8,145.6 			"/>
			<polygon fill="#C8A008" points="959.6,233.7 968.1,225.1 946.9,124.6 883.8,111.9 883.3,122.1 938.4,133.1 			"/>
			<polygon fill="#C8A008" points="910,310.8 916.9,312 933.8,216.6 925.2,225.1 			"/>
			<polygon fill="#C8A008" points="184.6,248.9 175.1,255.5 199,345 209.5,343.2 			"/>
			<path fill="#C8A008" d="M203.7,204.5c-6,6.3-19.1,18.5-26.7,23.4l-4.6-14.6l-10-32.1l-6.3-21.7l-6.2,8l6.3,21.7l10,32.1l4.6,14.7
				C181.1,229.2,196.1,216.8,203.7,204.5z"/>
		</g>
	</g>
	<g>
		<path fill="#7D8069" d="M568.7,146.6c-8.1-3.1-19.6-2.2-25.9,4.6c-1.4,1.6-4.2,5.6-5.1,7.4c6-4.8,16.7-5.8,23.7-3.3L568.7,146.6z"
			/>
		<path fill="#7D8069" d="M196.2,175.6c-0.9-4.9-5.6-8.6-7.9-9.7c-4.1-2-11.2-2.3-16.5-1.3c0.9,3.2,2,7.1,2.5,8.6
			c2.1,0.3,5.6,0.9,7.4,1.7c2.3,1.1,6.3,3.7,7.2,8.5c1.2,6.5,0.9,12.5-1.7,17.4C194.5,193.6,198.1,185.7,196.2,175.6z"/>
	</g>
	<g>
		<path fill="#3C5AA6" d="M1061.1,134c-0.1-0.1-0.2-0.2-0.3-0.2l-82.3-20c-0.2,0-0.3,0-0.4,0c-0.1,0.1-0.2,0.2-0.2,0.3
			c0,0-6.5,26.7-7.3,30.2c-0.7-3.6-6.8-33.7-6.8-33.7c-0.1-0.2-0.2-0.3-0.4-0.4l-96.7-21.3c-0.1,0-0.3,0-0.4,0.1
			c-0.1,0.1-0.2,0.2-0.2,0.3l0.7,53.7c0,0.2,0.2,0.4,0.4,0.4c0,0,13.4,3,14.2,3.1c-0.1,0.7-0.8,7.6-1,8.7
			c-18.1-9.6-40.5-10.5-61.7-2.5c-6.7,2.6-13.1,6-19.1,10.2c-0.2-1.3-14.4-91.4-14.4-91.4c-0.1-0.2-0.2-0.4-0.4-0.4h-64.3
			c-0.2,0-0.4,0.2-0.5,0.4c0,0-1.6,9.5-1.7,10.2c-0.8,0-67.3,0-67.3,0c-0.2,0-0.4,0.1-0.4,0.4c0,0-7.3,44.4-7.6,46.4
			c-1-1.2-5-6.1-5-6.1C622.1,103,599,91.8,572.8,90.8c2.6-1.4,56-30.1,56-30.1c0.1-0.1,0.2-0.1,0.2-0.3c0,0,0-0.1,0-0.1
			c0-0.1-0.1-0.2-0.1-0.3L589,0.2c-0.1-0.1-0.2-0.2-0.3-0.2c-0.2,0-0.3,0.1-0.4,0.2l-72.4,83.4c-0.1,0.1-0.1,0.2-0.1,0.3
			c0,0.1,0.1,0.2,0.1,0.3c0,0,11.5,13.9,12.2,14.8c-10.9,4.5-20.5,10.6-28.7,18.3c-0.6-0.5-61.8-54.8-61.8-54.8
			c-0.1-0.1-0.2-0.1-0.4-0.1c-0.2,0-0.3,0.1-0.3,0.2c0,0-19.2,36.7-20.8,39.9c0.1-3.5,0.8-38,0.8-38c0-0.1-0.1-0.3-0.2-0.3
			c-0.1-0.1-0.3-0.1-0.4-0.1l-97,31c-0.2,0.1-0.3,0.3-0.3,0.5l2.5,52.2c0,0.2,0.1,0.3,0.2,0.4c0.1,0.1,0.2,0.1,0.4,0.1
			c0,0,15-3.9,16-4.1c0.1,1,2.2,23.8,2.4,25.2c-18.8-8.2-41.5-7.9-62.2,0.9c-5.8,2.5-11.4,5.7-16.6,9.4c1.3-6,2-11.9,2-17.7
			c0-9.8-1.9-19.1-5.5-27.6c-7.2-16.6-19.9-30.6-35.8-39.5c-10.9-7.2-24-11.9-37.9-13.4c-33.6-5.9-74,0.2-113.8,17
			c-14.6,6.2-28.2,13.4-40.5,21.2l-15.5,9.9c-0.2,0.1-0.3,0.4-0.1,0.6l38.4,64.9c9.1,15.4,9.1,15.4,9.5,15.2c0,0,17-8.3,17.5-8.5
			c0.4,0.8,79,176.3,79,176.3c0.1,0.2,0.3,0.3,0.6,0.2l72.4-23.2c0.2,0,0.3-0.3,0.3-0.4c0,0,0-0.1,0-0.1c0,0-25.1-96.3-25.2-96.8
			c5.5-4.1,10.7-8.5,15.7-13.2c-0.3,2.8-0.5,5.5-0.5,8.2c0,6.6,0.9,13.1,2.6,19.3c5.5,19.5,18.3,34.8,35.9,43.3
			c19.1,9.2,42.4,9.2,63.9,0.1c10.2-4.3,19.6-10.6,27.8-18.6c0.2,1.7,2.9,30.8,2.9,30.8c0,0.1,0.1,0.2,0.2,0.3
			c0.1,0.1,0.2,0.1,0.4,0.1l68.4-10c0.2,0,0.4-0.3,0.4-0.5c0,0-0.1-59.2-0.1-60.7c1.3,0.6,142.4,70.4,142.4,70.4
			c0.2,0.1,0.3,0.1,0.4,0c0.2-0.1,0.3-0.3,0.3-0.4c0,0,0-67.3,0-68.1c5.8-0.5,11.5-1.4,17.2-2.7c15.6-3.7,28.8-8.9,40.5-15.8
			c-0.3,1.8-5.9,35.9-5.9,35.9s0,0,0,0.1c0,0.1,0,0.2,0.1,0.3c0.1,0.1,0.2,0.2,0.3,0.2l77.1,12.2c0.1,0,0.3,0,0.3-0.1
			c0.1,0,0.2-0.2,0.2-0.3c0,0,3.7-24,4-26.5c1.2,2.2,19.5,36.1,19.5,36.1c0,0.1,0.2,0.2,0.4,0.2c0.2,0,0.3-0.1,0.4-0.3
			c0,0,10.3-20,11.6-22.4c0.3,2.8,4.3,37.5,4.3,37.5c0,0.2,0.2,0.4,0.4,0.4l87.5,15.4c0.2,0,0.3,0,0.4-0.1c0.1-0.1,0.2-0.2,0.2-0.3
			c0,0,0,0,0-0.1c0,0-4.4-27.8-4.6-28.9c12,1.3,24.6-0.4,36.4-4.9c0,0,5.7-2.6,7.8-3.5c-0.2,1.5-3.5,30.6-3.5,30.6
			c0,0.2,0.2,0.4,0.4,0.4c0,0,57,8,57.8,8.1c0,0.7,0.5,23.5,0.5,23.5c0,0.2,0.1,0.4,0.3,0.4l60.6,19.1c0.2,0.1,0.5-0.1,0.6-0.3
			l79-238.1C1061.1,134.3,1061.1,134.2,1061.1,134z M585.5,27.8c0.7,0.9,19.9,27,20.5,27.8c-0.9,0.5-59,29.3-59.7,29.6
			c-0.4-0.5-3.5-5.2-3.8-5.7C542.9,79,584.8,28.7,585.5,27.8z M184.3,248.6c-0.1,0.1-0.2,0.2-0.2,0.4c0,0,0,0.1,0,0.1
			c0,0,23.8,91.5,24,92.3c-0.8,0.3-37.6,12-38.3,12.2c-0.4-0.8-80.1-178.9-80.1-178.9c-0.1-0.1-0.2-0.2-0.3-0.3
			c-0.1-0.1-0.3,0-0.4,0l-12.8,6.3c0,0-6,2.9-6.7,3.3c-0.4-0.7-28.1-47.6-28.6-48.3c11.3-7.2,23.9-13.7,37.3-19.4
			c36.2-15.4,72.6-21,102.5-15.8c11.8,1.4,21.9,4.9,30.3,10.4c13.4,7.5,22.9,17.9,28.6,30.8c2.8,6.4,4,13.2,4,20.3
			C243.7,191.6,221.1,225.8,184.3,248.6z M349.9,271.5c-8.4,11.6-19.6,20.7-32.4,26.2c-17.3,7.3-35,7.4-49.8,0.3
			c-13-6.2-22.5-17.7-26.5-32.2c-8.7-30.9,11.1-67.6,44.3-81.8c19.9-8.4,41.1-7.1,56.7,3.4c9.6,6.5,16.4,16,19.6,27.4l0.9,3.9
			c1,4.5,1.3,9.1,1.2,13.7C363.4,245.8,358.5,259.7,349.9,271.5z M548.5,297.2c-1.3-0.7-141.3-70.7-141.3-70.7
			c-0.1-0.1-0.3,0-0.5,0.1c-0.1,0.1-0.2,0.2-0.2,0.4c0,0,0.3,73.2,0.3,73.9c-0.8,0.1-34.9,4.8-35.9,4.9c0-0.9-2.5-30.2-2.5-30.2
			c8-13.6,12.2-28.8,12.2-43.5c0-6.8-0.9-13.4-2.7-19.8c-3.2-11.4-9.3-21.7-17.5-29.8h0c0-1.3-5.1-62.2-5.1-62.2
			c0-0.1-0.1-0.3-0.2-0.4c-0.1-0.1-0.2-0.1-0.4-0.1c0,0-15,3.9-16,4.2c0-1-0.6-14.2-0.7-14.9c0.7-0.2,57-17,58.1-17.3
			c0.1,1.1,3.6,60.2,3.6,60.2c0,0.2,0.1,0.3,0.3,0.4c0.2,0,0.4,0,0.5-0.2c0,0,42.6-59.8,43.1-60.6c0.8,0.7,41.1,39.1,41.7,39.8
			c-0.6,0.7-59,62.2-59,62.2c-0.1,0.1-0.1,0.2-0.1,0.3c0,0,0,0.1,0,0.1c0,0.2,0.1,0.3,0.2,0.3l55.7,22.1
			c6.1,11.7,15.7,21.9,27.6,29.2c11.5,7.1,24.4,11.3,38.5,12.7C548.5,259.1,548.5,295.8,548.5,297.2z M474.6,194.5
			c-1.3-0.5-17.2-6.6-18.3-7.1c0.9-0.9,15.6-15.1,17.1-16.5c-0.2,2.3-0.4,4.6-0.4,6.9C473,183.3,473.6,188.9,474.6,194.5z
			 M629.3,213.4c-13.6,11.3-28.9,18.5-49.5,23.5c-4.3,1.1-8.7,1.8-13.1,2.2c-31.7,3.1-59.2-10.9-69.8-35.7c-1.2-2.9-2.2-5.9-3-9
			c-4.5-19.3-1.3-37.5,9.3-52.6c2.9-4.1,6.3-7.8,10.1-11.3c9.5-8.5,21.7-14.6,35.2-17.9c29.4-7.1,57.2,1.2,74.4,22.1
			c-0.6,0.6-58.8,62.6-58.8,62.6c-0.1,0.1-0.1,0.2-0.1,0.3c0,0,0,0.1,0,0.1c0.1,0.1,0.2,0.3,0.4,0.3c4.8,0.9,12.3-0.7,15.3-1.5
			c13.3-3.2,21.2-9.9,28.8-18.8c0.7,0.6,28.6,25.7,30.1,27.1C635.6,207.8,632.5,210.7,629.3,213.4z M635.6,174.5
			c-1.1-1-11-9.9-11.7-10.5c0.6-0.6,13.2-14,13.2-14s1.9-2,3.1-3.2C639.7,149.4,635.8,173,635.6,174.5z M755.4,297.3
			c-0.1-0.6-12.8-84.8-12.8-84.8c0-0.2-0.2-0.3-0.4-0.4c-0.2,0-0.4,0.1-0.5,0.3c0,0-17,44.1-17.8,46c-0.9-1.9-26.8-57.7-26.8-57.7
			c-0.1-0.2-0.4-0.3-0.6-0.3c-0.2,0-0.5,0.2-0.5,0.4c0,0-10.6,66.6-10.7,67.5c-0.9-0.1-43.6-7.6-44.4-7.7c0.1-0.9,6.2-37.5,6.2-37.5
			c0.1,0.1,4.9-4.7,4.9-4.7l14.7-15.1c0.1-0.1,0.1-0.2,0.1-0.3v0c0-0.2,0-0.3-0.2-0.3c0,0-13.6-12.3-14.1-12.6
			c0.1-0.5,14.9-89,15-89.7c0.8,0,44.3,0,45.1,0c0.2,0.8,11.3,62.1,11.3,62.1c0.1,0.2,0.2,0.4,0.5,0.4c0.2,0,0.4-0.2,0.5-0.4
			c0,0,12.7-71.3,12.8-72.1c0.7,0,31.2,0,31.9,0c0.1,0.8,13.5,87.4,13.5,87.7c-14.1,16.1-21.7,35.7-21.7,54.7
			c0,5.4,0.6,10.7,1.8,15.9c4.5,18.9,16.2,34.2,32.8,43c0,0,4.3,2,5,2.3c0.1,0.4,1.5,9.5,1.6,10.6
			C801.5,304.3,756,297.4,755.4,297.3z M820.5,299L820.5,299L820.5,299z M867.9,269.6c-5.1,3.7-10.7,6.6-16.4,8.8
			c-11.2,4.2-22.8,5.4-33.4,3.3c-7.1-1.4-13.6-4.2-19.3-8.3c-9.4-6.7-15.8-16.5-18.6-28.3c-3.3-14-0.6-29.5,7.6-43.7
			c3.9-6.8,8.9-13,14.9-18.4c6.8-6.2,14.5-10.9,22.8-14.1c19-7.2,38.8-5.3,53.2,5c5.1,3.6,9.3,8.2,12.6,13.5
			c2.6,4.3,4.4,8.9,5.7,13.8c1,4.1,1.5,8.3,1.5,12.6c0,13.2-4.6,26.8-13.4,38.7C880.2,259.2,874.4,264.9,867.9,269.6z M969.9,349.7
			c-0.8-0.3-32.2-9.6-32.8-9.8c0-0.7-2.9-123.4-2.9-123.4c0-0.2-0.2-0.4-0.4-0.4c-0.2,0-0.5,0.1-0.5,0.4c0,0-16.7,94.1-16.8,95
			c-0.9-0.1-35-5.5-35.8-5.7c0.1-0.8,2.6-27,2.6-27c20.1-16.9,31.6-41,31.6-64.7c0-5.5-0.6-11-1.9-16.4c-3-12.7-9.6-23.9-18.9-32.5
			c0-0.4,3.1-32.2,3.1-32.2c0-0.2-0.2-0.4-0.4-0.4c0,0-12.8-3.4-13.4-3.6c0-0.7,0.9-15.4,0.9-16.4c1,0.2,61.7,12.4,62.3,12.5
			c0.2,0.6,21.2,100.3,21.2,100.3c0,0.2,0.2,0.4,0.4,0.4c0.2,0,0.4-0.1,0.5-0.4c0,0,21.4-88.8,21.6-89.7
			c0.9,0.2,46.1,10.2,47.1,10.4C1036.9,146.9,970.2,348.8,969.9,349.7z"/>
		<path fill="#3C5AA6" d="M155.7,158.7c-0.3,0.2-0.5,0.6-0.4,1l6.3,21.7l14.5,46.8c0.1,0.2,0.3,0.5,0.5,0.5c0.3,0.1,0.5,0.1,0.8-0.1
			c19.2-12.3,37.5-26.7,32.5-53.3c-1.6-8.4-7.3-15.4-15.6-19.4C183.1,150.6,168.7,151.6,155.7,158.7z M187.6,170.4
			c2.2,1,5.9,3.4,6.7,7.9c0.3,1.9,0.5,3.6,0.5,5.4c0,7.1-3.3,13.1-9.7,19.3c-0.9-2.7-8.2-26.2-8.2-26.2c0,0-1.9-6.4-2.3-7.8
			C179.5,168.2,183.9,168.7,187.6,170.4z"/>
		<path fill="#3C5AA6" d="M557.3,135.7c-9.2,0.4-17.8,4.4-24,11.2c-5.9,6.5-9.1,14.7-9.1,23.3c0,0.5,0,1.1,0,1.6
			c0.4,9.3,4.4,17.8,11.2,24l3.7,2.9c0.4,0.3,0.8,0.2,1.1-0.1l44.3-50.2c0.3-0.4,0.3-0.9,0-1.2l-2.4-2.5
			C575.4,138.4,566.5,135.2,557.3,135.7z M537.9,170.3c0-5.1,1.9-10.2,5.5-14.1l0,0c5.5-6.1,13.9-8.1,21.7-5.6
			c-1.8,2-23.1,26.3-24.9,28.4C538.8,176.1,537.9,173.2,537.9,170.3z"/>
		<path fill="#3C5AA6" d="M819.1,184.4c-5.6,5.2-8.9,12.2-9.2,19.5l0,0c-0.7,17.1,12.9,31,30.8,31.7c18.1,0.7,32.9-12,33.6-29.1
			c0.2-5.8-1.4-11.4-4.7-16.4c-0.2-0.3-0.6-0.4-1-0.3c-0.4,0.1-0.5,0.5-0.5,1l0.5,4.3c-0.4,8.9-8.9,15.8-18.9,15.4
			c-5.2-0.2-10.1-2.4-13.4-6c-2.8-3.1-4.3-6.9-4.1-10.9c0.3-8.3,7.7-14.9,17-15.3c0.4,0,0.9-0.4,0.9-0.8c0-0.4-0.3-0.8-0.7-0.9
			l-5.9-0.8C834.4,175.4,825.5,178.6,819.1,184.4z"/>
		<path fill="#3C5AA6" d="M275.7,220.7c0,17.1,14.1,30.5,32.1,30.5c18.2,0,32.3-13.4,32.3-30.5c0-5.7-1.8-11.3-5.3-16.2
			c-0.2-0.3-0.6-0.4-1-0.2c-0.3,0.1-0.5,0.6-0.5,1l0.7,4.2c0,8.9-8.2,16.1-18.2,16.1c-10,0-18.2-7.2-18.2-16.1
			c0-8.3,7.1-15.2,16.4-16c0.4,0,0.8-0.4,0.8-0.9c0-0.4-0.3-0.8-0.7-0.8l-5.9-0.5C290.2,191.3,275.7,204.5,275.7,220.7z"/>
	</g>
	<g>
		
			<linearGradient id="SVGID_29_" gradientUnits="userSpaceOnUse" x1="1044.4102" y1="449.0534" x2="1040.3101" y2="60.191" gradientTransform="matrix(1 0 0 1 -504.0859 -65.593)">
			<stop  offset="0" style="stop-color:#3C5AA6"/>
			<stop  offset="1" style="stop-color:#2A75BB"/>
		</linearGradient>
		<path fill="url(#SVGID_29_)" d="M978.7,114.9c-0.2,0.9-7.7,31.8-7.7,31.8c0,0.2-0.2,0.3-0.4,0.3c-0.2,0-0.4-0.1-0.5-0.3
			c0,0-7.1-34.8-7.2-35.4c-0.6-0.1-94.7-20.8-95.8-21.1c0,1.1,0.7,52.1,0.7,52.8c0.6,0.1,14.2,3.1,14.2,3.1c0.2,0.1,0.4,0.2,0.4,0.5
			c0,0-1.1,9.7-1.1,9.7c0,0.2-0.1,0.3-0.2,0.4c-0.1,0.1-0.3,0.1-0.5,0c0,0-0.2-0.1-0.4-0.2c-17.9-9.5-40.2-10.4-61.1-2.5
			c-6.8,2.6-13.4,6.1-19.5,10.5c-0.1,0.1-0.3,0.1-0.5,0c-0.1,0-0.2-0.2-0.3-0.4c0,0-14.4-90.9-14.5-91.7c-0.8,0-62.7,0-63.5,0
			c-0.2,0.7-1.7,10.2-1.7,10.2c0,0.2-0.2,0.4-0.4,0.4c0,0-66.5,0-67.3,0c-0.1,0.7-7.7,47-7.7,47c-0.1,0.2-0.2,0.3-0.3,0.4
			c-0.2,0-0.4,0-0.5-0.2l-5.6-6.9c-16.1-19.9-39.6-31.1-66.1-31.6c-0.2,0-0.4-0.2-0.5-0.4c0-0.1,0-0.1,0-0.1c0-0.2,0.1-0.3,0.2-0.4
			c0,0,56.1-30.2,57-30.6c-0.6-0.8-38.8-57.9-39.5-58.9c-0.8,0.9-71.2,82.1-71.7,82.7c0.5,0.6,12.3,15,12.3,15
			c0.1,0.1,0.1,0.2,0.1,0.3c0,0,0,0.1,0,0.1c0,0.2-0.1,0.2-0.3,0.3c-11.2,4.5-21,10.8-29.2,18.6c-0.2,0.2-0.5,0.2-0.6,0
			c0,0-60.7-53.9-61.6-54.6c-0.5,1-21.5,41.1-21.5,41.1c-0.1,0.2-0.3,0.3-0.5,0.2c-0.2-0.1-0.3-0.2-0.3-0.5c0,0,0.8-38.1,0.9-39.3
			c-1.2,0.4-95.5,30.5-96.1,30.7c0,0.7,2.4,50.2,2.4,51.2c1-0.2,16-4.2,16-4.2c0.1,0,0.3,0,0.4,0.1c0.1,0.1,0.2,0.2,0.2,0.3
			l2.5,26.5c0,0.2-0.1,0.3-0.2,0.4c-0.1,0.1-0.3,0.1-0.4,0c-18.8-8.4-41.4-8.2-62.2,0.6c-6,2.6-11.9,5.9-17.3,9.9
			c-0.2,0.1-0.4,0.1-0.5,0c-0.2-0.1-0.2-0.3-0.2-0.5c3.7-16.4,2.6-32.2-3.3-45.8c-7.1-16.4-19.7-30.2-35.4-39.1
			c-10.8-7.1-23.8-11.7-37.5-13.3c-33.5-5.9-73.7,0.2-113.3,17c-14.5,6.2-28.1,13.3-40.4,21.1c0,0-14.5,9.2-15.2,9.6
			c1.1,1.9,38.2,64.5,38.2,64.5s8.4,14.1,8.7,14.7c1.9-0.9,17.6-8.6,17.6-8.6c0.1,0,0.2,0,0.3,0c0.1,0,0.2,0.1,0.3,0.2
			c0,0,78.7,175.6,79,176.3c1.9-0.6,70.8-22.6,71.6-22.9c-0.2-0.8-25.2-96.7-25.2-96.7c0,0,0-0.1,0-0.1c0-0.2,0.1-0.3,0.2-0.4
			c5.9-4.3,11.5-9,16.6-14c0.2-0.1,0.3-0.1,0.5-0.1c0.2,0.1,0.3,0.3,0.3,0.4c-1.2,9.8-0.5,19.3,2,28.2c5.4,19.2,17.9,34.3,35.4,42.7
			c18.9,9.1,41.8,9.1,63.1,0.1c10.4-4.4,19.9-10.8,28.2-19c0.2-0.1,0.3-0.2,0.5-0.1c0.1,0.1,0.3,0.2,0.3,0.4c0,0,2.8,30.3,2.9,31.2
			c0.9-0.1,66.8-9.8,67.6-9.9c0-0.8-0.1-61-0.1-61c0-0.1,0.1-0.3,0.2-0.4c0.1-0.1,0.3-0.1,0.4,0c0,0,141.1,69.7,142.4,70.4
			c0-1.4,0-67.8,0-67.8c0-0.2,0.2-0.4,0.4-0.5c5.9-0.5,11.8-1.4,17.4-2.8c15.8-3.8,29.2-9.1,41-16.2c0.1-0.1,0.3-0.1,0.5,0
			c0.1,0.1,0.2,0.2,0.2,0.4c0,0,0,0.1,0,0.1s-5.8,35.4-5.9,36.3c0.9,0.1,75.3,11.8,76.2,12c0.1-0.9,4.2-27.3,4.2-27.3
			c0-0.2,0.2-0.4,0.4-0.4c0.2,0,0.4,0.1,0.5,0.2c0,0,18.9,35,19.7,36.5c0.7-1.4,11.9-23,11.9-23c0.1-0.2,0.3-0.3,0.5-0.2
			c0.2,0,0.3,0.2,0.4,0.4c0,0,4.4,37.9,4.5,38.6c0.6,0.2,85.2,15.1,86.5,15.3c-0.2-1.2-4.5-28.8-4.5-28.8c0,0,0-0.1,0-0.1
			c0-0.1,0-0.2,0.1-0.3c0.1-0.1,0.2-0.1,0.4-0.1c12,1.3,24.6-0.3,36.6-4.8l8.4-3.8c0.2-0.1,0.4-0.1,0.5,0.1c0.1,0.1,0.2,0.2,0.2,0.3
			c0,0-3.4,30.1-3.5,30.9c0.8,0.1,57.8,8.1,57.8,8.1c0.2,0,0.4,0.2,0.4,0.4c0,0,0.4,22.9,0.4,23.5c0.6,0.2,59.1,18.6,59.9,18.8
			c0.2-0.8,78.4-236.3,78.7-237.2C1059.2,134.4,979.6,115.1,978.7,114.9z M640.5,145.1c0.2-0.2,0.4-0.2,0.5-0.1
			c0.2,0.1,0.3,0.3,0.3,0.5l-4.9,30c0,0.2-0.1,0.3-0.3,0.4c-0.2,0-0.3,0-0.4-0.1L623,164.4c-0.1-0.1-0.2-0.2-0.2-0.3
			c0-0.1,0-0.2,0.1-0.3L640.5,145.1z M541.6,79.2l43.6-52.4c0.1-0.1,0.2-0.2,0.4-0.2c0.1,0,0.3,0.1,0.4,0.2L607,55.5
			c0.1,0.1,0.1,0.3,0.1,0.4c0,0.1-0.1,0.2-0.2,0.3l-60.6,30c-0.2,0.1-0.4,0-0.6-0.2l-4.2-6.3C541.5,79.5,541.5,79.3,541.6,79.2z
			 M185,249.1c0.2,0.6,24.1,92.4,24.1,92.4c0,0,0,0.1,0,0.1c0,0.2-0.1,0.4-0.3,0.4l-39.1,12.5c-0.2,0.1-0.4,0-0.6-0.2
			c0,0-79.7-178-80.1-178.8c-0.8,0.4-12.4,6.1-12.4,6.1l-7.1,3.4c-0.2,0.1-0.5,0-0.6-0.2L40,135.9c-0.1-0.2-0.1-0.5,0.2-0.6
			c11.4-7.3,24.1-13.9,37.8-19.7c36.4-15.5,73-21.1,103.1-15.9c11.8,1.4,22.1,4.9,30.6,10.6c13.5,7.6,23.2,18,28.9,31.2
			c2.8,6.5,4.1,13.4,4.1,20.6C244.6,191.8,221.9,226.2,185,249.1z M350.7,272.1c-8.5,11.8-19.8,21-32.8,26.5
			c-17.5,7.4-35.5,7.6-50.5,0.3c-13.3-6.4-22.9-18-27-32.8c-8.8-31.3,11.3-68.5,44.8-82.9c20.2-8.6,41.7-7.3,57.6,3.5
			c9.8,6.6,16.7,16.3,20,28l0.9,4c0.9,4.5,1.3,9.2,1.2,13.9C364.3,246,359.3,260.1,350.7,272.1z M549.4,298c0,0.2-0.1,0.3-0.2,0.4
			c-0.1,0.1-0.3,0.1-0.5,0c0,0-139.9-70-141.3-70.7c0,1.4,0.2,73.6,0.2,73.6c0,0.2-0.2,0.4-0.4,0.5l-36.7,5c-0.1,0-0.3,0-0.4-0.1
			c-0.1-0.1-0.1-0.2-0.1-0.3c0,0-2.5-30-2.5-30.9v0c8-13.7,12.2-28.8,12.2-43.3c0-6.7-0.9-13.3-2.7-19.6
			c-3.2-11.3-9.2-21.4-17.4-29.7c0,0-5.1-60.9-5.2-62c-1,0.3-16,4.2-16,4.2c-0.1,0-0.3,0-0.4-0.1c-0.1-0.1-0.2-0.2-0.2-0.3
			l-0.7-15.8c0-0.2,0.1-0.4,0.3-0.5l59-17.6c0.1,0,0.3,0,0.4,0.1c0.1,0.1,0.2,0.2,0.2,0.3c0,0,3.4,57.1,3.5,59.5
			c1.5-2,42.7-60,42.7-60c0.1-0.1,0.2-0.2,0.3-0.2c0.1,0,0.3,0.1,0.3,0.1l42.5,40.4c0.1,0.1,0.1,0.2,0.1,0.3c0,0.1,0,0.2-0.1,0.3
			c0,0-57.9,61.2-58.9,62.1c6.1,2.4,55.1,21.8,55.4,22c6.2,11.8,15.8,21.8,27.5,29c11.4,7,24.4,11.3,38.5,12.6
			c0.2,0,0.4,0.2,0.4,0.5V298z M475.7,195.1c0,0.2,0,0.4-0.2,0.4c-0.1,0.1-0.3,0.1-0.4,0.1l-19.7-7.6c-0.1,0-0.2-0.2-0.3-0.3
			c0-0.2,0-0.3,0.1-0.4l18.4-17.8c0.2-0.1,0.3-0.2,0.5-0.1c0.1,0.1,0.3,0.3,0.3,0.5C473.5,178,474,186.6,475.7,195.1z M639.7,205.1
			c-3.2,3.3-6.5,6.3-9.7,9c-13.7,11.3-29.1,18.6-49.9,23.6c-4.4,1.1-8.8,1.8-13.3,2.2c-32.1,3.1-59.9-11.1-70.7-36.3
			c-1.3-2.9-2.2-6-3-9.1c-4.6-19.6-1.4-38.1,9.5-53.3c2.9-4.1,6.3-8,10.3-11.4c9.6-8.6,21.9-14.8,35.6-18.1
			c29.9-7.2,58.1,1.3,75.5,22.7c0.1,0.1,0.1,0.2,0.1,0.3c0,0.1,0,0.2-0.1,0.3c0,0-57.2,60.9-58.4,62.2c4.6,0.5,11.2-0.9,14-1.5
			c13.2-3.2,21.1-9.9,28.7-18.9c0-0.1,0.2-0.1,0.3-0.2c0.1,0,0.3,0,0.4,0.1l30.8,27.7c0.1,0.1,0.1,0.2,0.1,0.3
			S639.7,205,639.7,205.1z M803.6,305.4c-0.1,0.1-0.3,0.2-0.4,0.2l-48.4-7.4c-0.2,0-0.4-0.2-0.4-0.4c0,0-12.1-80.2-12.6-83.4
			c-1.2,3-17.5,45.4-17.5,45.4c-0.1,0.2-0.2,0.3-0.4,0.3c-0.2,0-0.4-0.1-0.4-0.3c0,0-26-56.1-26.8-57.8c-0.3,1.9-10.6,67-10.6,67
			c0,0.1-0.1,0.2-0.2,0.3c-0.1,0.1-0.2,0.1-0.4,0.1l-45.3-7.9c-0.3,0-0.4-0.2-0.4-0.5c0,0,0,0,0-0.1c0,0,6.3-37.9,6.5-38.2l5-4.9
			c0,0,13.7-14.2,14.3-14.8c-0.7-0.6-13.9-12.5-13.9-12.5c-0.1-0.1-0.1-0.2-0.1-0.3c0-0.1,0-0.1,0-0.1l15.2-90.4
			c0-0.2,0.2-0.4,0.4-0.4h45.8c0.2,0,0.4,0.1,0.5,0.4c0,0,10.1,55.5,10.9,60.1c0.8-4.7,12.4-70,12.4-70c0-0.2,0.2-0.4,0.5-0.4h32.7
			c0.2,0,0.4,0.2,0.4,0.4l13.6,88.3c0,0.1,0,0.3-0.1,0.4c-18,20.5-25.4,46.7-19.8,70c4.5,18.6,15.9,33.7,32.4,42.4l5.1,2.4
			c0.1,0.1,0.3,0.2,0.3,0.4l1.7,11.4C803.8,305.1,803.7,305.3,803.6,305.4z M868.4,270.3c-5.2,3.7-10.8,6.7-16.5,8.9
			c-11.4,4.3-23.1,5.4-33.9,3.3c-7.3-1.4-13.9-4.2-19.7-8.4c-9.5-6.8-16-16.8-18.9-28.8c-3.4-14.2-0.7-30,7.6-44.4
			c4-6.9,9.1-13.1,15.1-18.6c6.9-6.2,14.7-11,23.2-14.3c19.2-7.2,39.4-5.3,54,5.2c5.2,3.7,9.5,8.3,12.8,13.7
			c2.6,4.4,4.6,9.1,5.8,14.1c4.1,17-0.3,36-12,52.1C880.9,259.8,875,265.6,868.4,270.3z M970.7,350.4c-0.1,0.2-0.3,0.4-0.6,0.3
			l-33.5-10c-0.2,0-0.3-0.2-0.3-0.4c0,0-2.6-110.6-2.8-119.1c-1.4,8.2-16,90.9-16,90.9c-0.1,0.3-0.3,0.4-0.6,0.4l-36.6-5.8
			c-0.2,0-0.4-0.2-0.4-0.5c0,0,0,0,0,0c0,0,2.6-27.5,2.7-27.8c20-16.9,31.5-40.9,31.5-64.3c0-5.5-0.6-10.9-1.9-16.2
			c-3-12.6-9.5-23.7-18.8-32.2c-0.1-0.1-0.2-0.2-0.2-0.3c0,0,3-31.3,3.1-32.1c-0.7-0.2-13.5-3.6-13.5-3.6c-0.2-0.1-0.3-0.2-0.3-0.4
			c0,0,1-17.3,1-17.3c0-0.1,0-0.3,0.2-0.3c0.1-0.1,0.2-0.1,0.4-0.1l63,12.6c0.2,0.1,0.3,0.2,0.4,0.4c0,0,20,94.8,20.8,98.6
			c0.9-3.8,21.3-88.2,21.3-88.2c0.1-0.2,0.3-0.4,0.5-0.4l48,10.6c0.1,0,0.2,0.1,0.3,0.2c0.1,0.1,0.1,0.3,0.1,0.4L970.7,350.4z"/>
		
			<linearGradient id="SVGID_30_" gradientUnits="userSpaceOnUse" x1="688.7667" y1="393.8033" x2="685.3375" y2="68.5654" gradientTransform="matrix(1 0 0 1 -504.0859 -65.593)">
			<stop  offset="0" style="stop-color:#3C5AA6"/>
			<stop  offset="1" style="stop-color:#2A75BB"/>
		</linearGradient>
		<path fill="url(#SVGID_30_)" d="M209.1,175.5c-3.5-19-28.3-29.4-53-16l6.3,21.7l10,32.1l4.6,14.6C195.5,216,214,201.8,209.1,175.5
			z M184.7,204.7c-2.7-8.8-8.6-27.7-8.6-27.7c0,0.1-1.2-4.1-2.6-8.8c5.2-1,10.3-0.5,14.4,1.5c2.3,1.1,6.3,3.6,7.2,8.5
			C197.2,189,193.5,196.8,184.7,204.7z"/>
		
			<linearGradient id="SVGID_31_" gradientUnits="userSpaceOnUse" x1="1060.192" y1="373.0868" x2="1056.9067" y2="61.5044" gradientTransform="matrix(1 0 0 1 -504.0859 -65.593)">
			<stop  offset="0" style="stop-color:#3C5AA6"/>
			<stop  offset="1" style="stop-color:#2A75BB"/>
		</linearGradient>
		<path fill="url(#SVGID_31_)" d="M581.7,145.3c-13.8-12.6-35.2-11.7-47.7,2.1c-12.6,13.8-11.7,35.1,2.1,47.7c1.1,1.1,2.3,2,3.6,2.8
			l44.4-50.2C583.2,146.9,582.5,146.1,581.7,145.3z M539.7,180.7c-4.4-8-3.4-18.1,3-25.2c6.3-6.8,15.8-8.8,24-5.6L539.7,180.7z"/>
		
			<linearGradient id="SVGID_32_" gradientUnits="userSpaceOnUse" x1="-1908.8164" y1="-2958.9167" x2="-1909.8092" y2="-3053.0811" gradientTransform="matrix(0.7382 0 0 0.7382 2251.5457 2425.3521)">
			<stop  offset="0" style="stop-color:#3C5AA6"/>
			<stop  offset="1" style="stop-color:#2A75BB"/>
		</linearGradient>
		<path fill="url(#SVGID_32_)" d="M868.9,190.6c0.4,1.4,0.6,2.9,0.5,4.5c-0.4,9.3-9.3,16.6-19.7,16.2c-10.6-0.4-18.8-8.4-18.4-17.7
			c0.4-8.8,8.2-15.7,17.9-16.2c-1.8-0.4-3.8-0.7-5.7-0.8c-17.6-0.7-32,11.8-32.6,27.3c-0.7,16.6,12.7,30.2,30,30.9
			c17.6,0.7,32-11.8,32.6-28.3C873.7,200.7,871.9,195.3,868.9,190.6z"/>
		
			<linearGradient id="SVGID_33_" gradientUnits="userSpaceOnUse" x1="-2632.4993" y1="-2938.8462" x2="-2633.4714" y2="-3031.0498" gradientTransform="matrix(0.7382 0 0 0.7382 2251.5457 2425.3521)">
			<stop  offset="0" style="stop-color:#3C5AA6"/>
			<stop  offset="1" style="stop-color:#2A75BB"/>
		</linearGradient>
		<path fill="url(#SVGID_33_)" d="M334.8,209.5c0,9.4-8.5,17-19.1,17c-10.5,0-19.1-7.6-19.1-17c0-8.8,7.6-16,17.2-16.9
			c-1.9-0.3-3.8-0.5-5.7-0.5c-17.6,0-31.5,13.1-31.5,28.6c0,16.6,13.9,29.6,31.2,29.6c17.6,0,31.5-13.1,31.5-29.6
			c0-5.7-1.9-11.1-5.1-15.7C334.5,206.5,334.8,208,334.8,209.5z"/>
	</g>
</g>
</svg>
